<svg xmlns="http://www.w3.org/2000/svg" viewBox="0 0 784.01 784.01"><defs><style>.cls-1{fill:#605d5c;}.cls-2{fill:#d2d1cf;}.cls-3,.cls-4{fill:#fff;}.cls-4,.cls-6{font-size:107px;font-family:MyriadPro-Regular, Myriad Pro;}.cls-5{fill:#7c5a24;stroke:#fff;stroke-miterlimit:10;stroke-width:0.79px;}</style></defs><title>e80Asset 2</title><g id="Layer_2" data-name="Layer 2"><g id="Layer_1-2" data-name="Layer 1"><path class="cls-1" d="M658.82,553.4c16.21,12.16,29,26.48,36.1,44.74,1.35-2.78,2.64-5.58,3.9-8.4,5.45-13.67,10.22-27.59,14.66-41.62a63,63,0,0,1,26.89-35,50.39,50.39,0,0,1,23.54-7.58c-.08-.15-.15-.3-.22-.45a166.57,166.57,0,0,0-28.63-40.57c-17.85-18.68-36.18-36.93-53.75-55.88-16.15-17.44-30.5-36.16-37.76-59.44-5.56-17.86-6.75-35.77-2.72-54.05.3-1.36,0-2.84,0-5.46-6.22,2.62-12.27,4.6-17.76,7.6a180.46,180.46,0,0,0-46.2,36.26,278.28,278.28,0,0,0-38.47,52.77c-9.14,16.27-17.3,33-22.65,50.92a253.27,253.27,0,0,0-8.7,44.39c-2.4,21.35,1.51,41.85,6.26,62.36,3.61,15.6,7.41,31.15,11.1,46.73a11.49,11.49,0,0,1-.44,2.65c-22.51-25.17-40.38-51.49-42.76-85.46-16,27.92-25.29,76.85-7,118,19.42,43.65,51.43,72.54,99.91,83.09-8.65-19.56-8.89-39.35-7.8-59,.77-14.13,3.47-28.28,12.27-40.11,3.2-4.31,7.45-7.82,12.05-11.35,2.23,12,3.55,23.69,10.76,33.31,6.92,9.24,14.26,18.16,22.06,28.05,15.34-13.37,23.23-31.17,30.26-49.3C660.9,592.26,664.15,573.27,658.82,553.4Z"/><path class="cls-2" d="M292.25,466.13c-2.37,34-20.25,60.3-42.75,85.47a11.87,11.87,0,0,1-.45-2.64c3.69-15.59,7.49-31.14,11.11-46.74,4.75-20.51,8.66-41,6.26-62.36a254.21,254.21,0,0,0-8.71-44.39c-5.35-18-13.51-34.65-22.65-50.92a278.55,278.55,0,0,0-38.46-52.77,180.8,180.8,0,0,0-46.2-36.26c-5.49-3-11.55-5-17.77-7.6,0,2.62-.26,4.1,0,5.46,4,18.28,2.85,36.19-2.72,54.05-7.25,23.28-21.6,42-37.76,59.44-17.56,18.95-35.89,37.2-53.75,55.88a168.16,168.16,0,0,0-19,23.9,52,52,0,0,1,4.88,2.51c13.39,7.83,22.05,20.51,26.88,35,5,15,10.44,29.86,16.39,44.51,3.74,8.57,7.7,17.07,11.92,25.43,7.24-17.18,19.66-30.82,35.19-42.47-5.34,19.87-2.09,38.86,5,57.24,7,18.13,14.92,35.94,30.25,49.3,7.81-9.88,15.15-18.81,22.07-28,7.2-9.62,8.53-21.32,10.76-33.31,4.59,3.53,8.85,7.05,12.05,11.35,8.79,11.83,11.49,26,12.27,40.11,1.08,19.66.85,39.45-7.44,58.19,38.22-4.69,80-36.19,99.67-82.22C317.08,542.79,308.24,494.06,292.25,466.13Z"/><path class="cls-1" d="M598.07,546.67a184.86,184.86,0,0,1,18.07,16.73c19.16,20.71,26.3,44.92,23.42,71.38a43.84,43.84,0,0,1,5.15-.56,65.65,65.65,0,0,1,19-9.63c13.74-4.44,28.62-1.83,41.44,4.11a185.24,185.24,0,0,0,10.75-40.93,163.78,163.78,0,0,0,.32-48.17c-3-20.31-11-39-22.38-56.19C680.73,463.7,664.24,447,648,430c-13.05-13.55-26.28-26.94-38.83-40.93-9.07-10.11-16.81-21.43-21.71-34.19a186.56,186.56,0,0,1-8.83-29.7c-1.35-6.66-.61-13.8-.33-20.71.27-6.73,1.15-13.42,1.79-20.37a13.78,13.78,0,0,0-3,.35c-20.18,7.56-37.47,19.74-52.67,34.67a315.93,315.93,0,0,0-26.64,30.41A264.1,264.1,0,0,0,461,413.51a214.62,214.62,0,0,0-14.88,62.71A149.22,149.22,0,0,0,449,521c3.86,17.8,8.38,35.46,12.51,53.2.9,3.86,1.39,7.83,2.06,11.75A150,150,0,0,1,434,547.25c-7.64-14.38-13.06-29.49-13.9-46-22,47.33-24.44,94.26,4.4,139.68,20.65,32.53,49.48,54.21,88.8,61.56-5.69-11.78-7.28-23.67-7.88-35.58-.48-9.5.2-19.09.86-28.61a70.88,70.88,0,0,1,9.29-31.42c3.53-6,8-11.18,15.25-14.77,1,12.49,2.71,24.13,9.94,33.81,7,9.34,14.43,18.3,21.86,27.67,12.71-10.53,19.66-24.49,26-38.59C598.32,593.37,604.39,571,598.07,546.67Z"/><path d="M135.24,379.69l.33-.81c1-1.73,2.18-3.41,3-5.22,3.65-7.61,9.13-13.68,16.85-16.87a151.65,151.65,0,0,1,22.72-7c6-1.46,7.49-3.64,6.77-9.95-.44-3.81.51-7.95,1.63-11.71a40,40,0,0,1,5-10.55c2.17-3.26,4.7-7.75,7.89-8.58,8-2.11,10.83-7.22,11.85-14.47.2-1.41,1.11-2.74,1.23-4.15a9.3,9.3,0,0,0-.48-4.81,29.28,29.28,0,0,1-1.4-25.21c16.86-43.35,48-70.88,92.62-83.25,28.33-7.85,57.21-8.68,86.22-5.65,32.86,3.43,65,9.79,95,24.58,28.51,14,55.4,30.4,78.08,52.9,39.6,39.26,60.78,85.51,53.49,142.49-2.62,20.5-6.94,26.33-27.92,31.51-.28.07-.67,0-.84.17-1,1-2.34,1.84-2.79,3-2.35,6.22-4.59,12.48-6.55,18.82a7.94,7.94,0,0,0,.35,5.44c5.45,10.6,7.35,21.7,4.53,33.3-1.42,5.86-3.74,11.52-5.71,17.46,10.82,11.4,18,24.68,18.26,41.54-3.11-1.27-5.74-2.45-8.46-3.42-8.37-3-16-2-22.31,4.68-2,2.09-3.42,1.77-5.58.55-4.74-2.68-9.62-5.12-14.36-7.61l-2.55,3.34c-13.79,18.11-31.9,29.2-54.63,30.85a276.51,276.51,0,0,1-44.21-.31c-40.52-3.58-78.88-15.9-116.44-30.88a752.82,752.82,0,0,1-91.5-44.38c-14.29-8.09-28.12-16.77-39.2-29.17C181.63,450,173,431.4,173.79,409.12c.2-5.83,1.74-11.73-1.53-17.28-.47-.8,0-2.14-.51-2.95-1.05-1.83-2-4.26-3.71-5.07-7.6-3.72-15.89-4.05-24.21-3.91C141,380,138.11,379.77,135.24,379.69Zm294-3.14h.95c-.11,4.12,0,8.26-.39,12.35-.8,7.68-1,7.79,6.42,9.58a798.41,798.41,0,0,0,86.47,16.38c3.24.41,5.08-.21,5.11-3.78.06-5.72.16-11.44.25-18.24,7.13,6.84,5,15.09,4.89,23.44,10,.4,19.62.88,29.28,1,.94,0,2.74-1.88,2.74-2.89,0-5.75-.4-11.51-.72-17.26-.09-1.47-.38-2.92-.58-4.38l1.33-.22c6.31,7,4,16,4.74,24.21,7.13.47,11.26-11,8.07-21.41-9.4.59-15.58-4.33-20-11.9-1.56-2.65-2.91-6.31,0-8.3a10,10,0,0,1,8.35-.76c8.68,4,15.72,9.92,17.51,20,.93,5.26,1.27,10.62,1.82,15.94.16,1.51.14,3,.22,5.23,3.81-1.23,7-2.15,10.07-3.28,6.36-2.33,10.46-6.52,11.15-13.59.44-4.46,1.15-8.88,1.75-13.32,3.53-26.18-1.07-51.19-11.66-75.1-14.67-33.11-38.61-58.51-67.66-79.46-3.64-2.63-7.41-5.08-12-8.24,1.25,7.53-1,12.81-4.19,17.84a32.33,32.33,0,0,0-1.94-19.23,9.53,9.53,0,0,0-3.63-4.54c-20.25-11.35-40.69-22.22-63.42-28-17.77-4.56-20.87-4.06-34.47,8.51-2,1.82-3.92,3.66-5.87,5.5,2.12-9.27,9.61-13.71,16.78-18.81a11.47,11.47,0,0,0-1.72-.69c-34.77-6.36-69.62-8.34-104.47-1-46.25,9.81-78.83,36.15-96.24,80.51-3.89,9.92-.69,20.77,7.15,25.75,5.31-6.64,10.07-13.74,16-19.7,7.24-7.31,17.35-11.84,22.38-11.56a2.67,2.67,0,0,1-.52.66c-.61.38-1.26.71-1.91,1-12.81,6.35-21.69,16.62-28.77,28.73-2.1,3.59-2.21,6.33,1.71,9.12,14.48,10.3,28.74,20.92,43.12,31.36a59.74,59.74,0,0,0,5.67,3.27c5.35-7.78,9.89-15.44,19.77-16.67-.83,1.32-2.24,2.05-3.17,3.18-3.75,4.51-7.49,9.05-10.89,13.82-.56.79.12,3.59,1,4.13,11.25,6.74,22.66,13.24,34.24,19.93l18.69-23.17.85.59c-5,8-10,15.95-15.41,24.56,8.55,4,16.51,7.74,24.49,11.46,5.12,2.38,5.26,2.23,7.89-2.7,2.44-4.58,5.11-9,7.68-13.55l1.36.48L364.9,375c18,7.41,35.87,15.28,55.75,19.51C423.53,388.48,426.36,382.52,429.2,376.55ZM182.81,416.24l-1,1.38c1.49,19.42,10.95,34.79,24.77,48.42.64-1.57,1-2.78,1.61-3.9s1.37-2.14,2.07-3.21c-1.41,7.51.88,12.83,7.28,16.48,1.88,1.07,3.46,2.65,5.34,3.7,17.32,9.69,34.48,19.69,52.06,28.88a597.72,597.72,0,0,0,95.48,39.71c2.24.72,3.46.39,4.52-1.74,1.28-2.56,2.87-5,4.32-7.43l.88.37c-.46,3.65-.93,7.31-1.45,11.38,7.76,2,15.34,3.86,22.82,6.05,4,1.17,6.64.35,9.23-3.05,3.2-4.22,7.09-7.91,10.69-11.83l.9.73-9.58,16a12.23,12.23,0,0,0,2.66,1.05c15.51,1.76,31,3.36,46.52,5.23,4.57.56,7.21-1.53,8.92-5.21,1.79-3.84,3.24-7.84,5.34-13-1.18,6.61-2.16,12.16-3.26,18.32,5.95-.49,12.1-1.28,18.26-1.42,7.58-.19,11.21-5.11,14.4-10.86,1.66-3,.83-4.73-2.36-6-7.44-2.88-14.88-5.8-22.16-9-5.5-2.45-10-1.44-14.45,2.32-1.22,1-3.56,1.28-5.25,1s-3.42-1.49-5-2.48c-9.35-5.87-18.79-11.54-29.65-14.26-9.91-2.47-19.46-2.87-28.2,3.86a9.33,9.33,0,0,1-6,1.48c-8-.67-13.57-5.32-18.06-11.58-5.2-7.26-10.65-9.12-18.83-5.9-2.79,1.09-4.48.65-6.45-1.41-5.61-5.87-11.19-11.79-17.14-17.3-6.79-6.26-13.7-10.27-24.22-6.93-12.56,4-29.23-2.4-34.62-11.84-5.29-9.26-12.79-12.37-23.07-12.13-25.88.59-46.73-11.84-51.82-37.42-.18-.94-.64-2.26-1.35-2.58C192.31,420,187.54,418.16,182.81,416.24Zm114.34,40.9A235.46,235.46,0,0,1,400.79,431a536.7,536.7,0,0,1-105.94-44.52C286,400.8,283.28,435.37,297.15,457.14Zm182.56-10.09c31.8,14.62,62.49,30,86.11,56.9,1.54-2.44,3-4.54,4.25-6.8,7.85-14.6,9.3-29.32.79-44.27-1.44-2.51-3.13-3.15-5.93-3.14-18.35,0-36.7.09-55-.37C500,449.12,490.1,447.88,479.71,447.05Zm-237.94-.54c2.35.06,3.89.05,5.42.14,11.83.63,23,3.53,30.23,13.53,4.87,6.72,11.43,9.3,18.68,11.44A20.35,20.35,0,0,0,310,471c3.19-1.24,7.47-.91,10.92,0,9,2.41,15.32,8.92,21.69,15.32,3.59,3.61,7.75,6.66,11.61,9.92,1.26-2,2.07-3.3,2.95-4.6,6.05-8.94,6-8.84-3.93-13Q335,471,317,463c-8.83-3.93-9.88-4.05-17,3.08-2.68,2.71-4.72,2.54-6.68,0-3.38-4.45-6.42-9.18-9.63-13.76-1-1.38-1.77-3.28-3.13-3.92q-12.75-6-25.79-11.47a5.31,5.31,0,0,0-4.62.69C247.27,440.09,244.86,443.12,241.77,446.51ZM210.7,418.68c5,12.56,12.85,22.31,25.8,28.53-.77-.94-1.24-1.45-1.21-1.48,3.64-3.91,7.32-7.79,11.61-12.32Zm182.62,94.88c1-4.64,1.62-8,2.6-11.31,1.08-3.62,0-5.53-3.58-6.82-6-2.12-11.82-4.72-17.72-7.12-9.1-3.71-9.67-3.41-12,6.29,0,.12.06.27.16.69,1.28.18,2.66.4,4.06.59a25.54,25.54,0,0,1,15.64,8.33C385.66,507.59,389.51,510.32,393.32,513.56ZM298.87,383.5A483.79,483.79,0,0,0,409,428.33Zm270.82,8.59,6.68-.52c-.41-2-.19-4.6-1.38-5.95a49.36,49.36,0,0,0-9.31-8.18c-1.36-.93-3.77-.32-5.7-.41.24,1.88-.14,4.24.86,5.55C563.42,386,566.61,388.85,569.69,392.09ZM398.42,511.27l18.39-4.61-16.29-7.8C399.72,503.62,399,507.65,398.42,511.27ZM507,556.8l1,.81,8-4.35,0-1.34c-1.89-.66-4.84-2.39-5.46-1.77C508.84,551.84,508.12,554.51,507,556.8Z"/><path class="cls-3" d="M429.2,376.55c-2.84,6-5.67,11.93-8.55,18-19.88-4.23-37.76-12.1-55.75-19.51l4.51-21.6-1.36-.48c-2.57,4.51-5.24,9-7.68,13.55-2.63,4.93-2.77,5.08-7.89,2.7-8-3.72-15.94-7.46-24.49-11.46,5.4-8.61,10.4-16.59,15.41-24.56l-.85-.59-18.69,23.17c-11.58-6.69-23-13.19-34.24-19.93-.91-.54-1.59-3.34-1-4.13,3.4-4.77,7.14-9.31,10.89-13.82.93-1.13,2.34-1.86,3.17-3.18-9.88,1.23-14.42,8.89-19.77,16.67a59.74,59.74,0,0,1-5.67-3.27c-14.38-10.44-28.64-21.06-43.12-31.36-3.92-2.79-3.81-5.53-1.71-9.12,7.08-12.11,16-22.38,28.77-28.73.65-.33,1.3-.66,1.91-1a2.42,2.42,0,0,0,.51-.66c-5-.28-15.13,4.25-22.37,11.56-5.9,6-10.66,13.06-16,19.7-7.84-5-11-15.83-7.15-25.75,17.41-44.36,50-70.7,96.24-80.51,34.85-7.39,69.7-5.41,104.47,1a11.47,11.47,0,0,1,1.72.69c-7.17,5.1-14.66,9.54-16.78,18.81,1.95-1.84,3.9-3.68,5.87-5.5,13.6-12.57,16.7-13.07,34.47-8.51,22.73,5.83,43.17,16.7,63.42,28a9.53,9.53,0,0,1,3.63,4.54,32.33,32.33,0,0,1,1.94,19.23c3.17-5,5.44-10.31,4.19-17.84,4.62,3.16,8.39,5.61,12,8.24,29.05,20.95,53,46.35,67.66,79.46,10.59,23.91,15.19,48.92,11.66,75.1-.6,4.44-1.31,8.86-1.75,13.32-.69,7.07-4.79,11.26-11.15,13.59-3.09,1.13-6.26,2.05-10.07,3.28-.08-2.2-.06-3.72-.22-5.23-.55-5.32-.89-10.68-1.82-15.94-1.79-10.07-8.83-16-17.51-20a10,10,0,0,0-8.35.76c-2.92,2-1.57,5.65,0,8.3,4.46,7.57,10.64,12.49,20,11.9,3.19,10.41-.94,21.88-8.07,21.41-.74-8.2,1.57-17.24-4.74-24.21l-1.33.22c.2,1.46.49,2.91.58,4.38.32,5.75.72,11.51.72,17.26,0,1-1.8,2.91-2.74,2.89-9.66-.16-19.31-.64-29.28-1,.15-8.35,2.24-16.6-4.89-23.44-.09,6.8-.19,12.52-.25,18.24,0,3.57-1.87,4.19-5.11,3.78a798.41,798.41,0,0,1-86.47-16.38c-7.38-1.79-7.22-1.9-6.42-9.58.42-4.09.28-8.23.39-12.35ZM241.69,249.1c6.8,2.7,16.37,1.9,20.93-1.67,1.7-1.33,3.53-4,3.33-5.83s-2.48-4.49-4.4-5.14c-6.65-2.25-13.51-2.1-19.52,1.92-1.84,1.24-3.59,4.11-3.56,6.2C238.5,246.45,241,248.27,241.69,249.1ZM292,277.45c-6.29-1.79-15.52-1.09-20.17,2.56-1.7,1.34-3.53,4-3.32,5.87S271,290.3,273,291c6.68,2.24,13.5,1.87,19.51-2.11,1.75-1.16,3.5-3.91,3.39-5.83S293.37,279.3,292,277.45Zm27-40.51c7,2.85,16.3,2.16,20.88-1.48,1.69-1.35,3.41-4,3.29-5.88-.1-1.71-2.43-4.12-4.28-4.74-6.68-2.26-13.5-2-19.52,2a8.21,8.21,0,0,0-3.33,5.89C316,234.48,318.39,236.21,319,236.94Zm-39.62-22.7c8.36,2.29,15.32,2,21.58-2.28,4.61-3.18,4-7.87-1.16-10.06a21.1,21.1,0,0,0-20,1.52c-1.8,1.1-3.6,3.81-3.6,5.79S278.49,213,279.33,214.24Zm298.36,86.42c-2.31-.77-5.81-2.61-8.69.66s-1.06,6.6.84,9.58c3.13,4.9,7.31,8.81,13,10.18,2.18.53,5.56-.08,7-1.54,1.22-1.23,1.15-4.73.38-6.74C588.16,307.32,584,303.54,577.69,300.66Zm-35.89,7.83c-2.84.32-6,0-8.39,1.21-1.23.62-2,4.24-1.43,6a20.76,20.76,0,0,0,15.09,14.08c2,.52,5.37-.2,6.53-1.64s1.08-4.75.31-6.76C551.74,315.75,547.28,312.09,541.8,308.49ZM322.12,273.77c8.17,2,15.14,2,21.33-2.53,4.37-3.17,3.82-7.6-1.12-9.73A20.92,20.92,0,0,0,322,263.15a8.08,8.08,0,0,0-3.24,6C318.83,270.88,321.21,272.6,322.12,273.77Zm6.16,38.62c8.14,2.39,14.86,2.25,20.9-1.78,1.69-1.13,3.43-3.76,3.29-5.56s-2.31-4.14-4.14-4.86a21.08,21.08,0,0,0-20,1.84c-1.65,1.08-3.35,3.72-3.21,5.5C325.32,309.52,327.55,311.34,328.28,312.39Zm163.41,33.39c2.71-.35,5.81,0,8-1.3,1.25-.72,1.91-4.34,1.28-6.09a20.78,20.78,0,0,0-15.81-14c-5.23-1.14-8.09,2.43-6.31,7.5C481,338.2,485.74,342.1,491.69,345.78Zm-10.16,36.07c3.32,1.21,6.73,2.72,9.38-.38s1.29-6.59-.7-9.6c-3-4.56-6.82-8.4-12.19-9.78-2.37-.6-6.31-.58-7.42.82-1.36,1.73-1.37,5.56-.43,7.85C472.3,376,476.58,379.49,481.53,381.85Zm48.69-140.07c-2.91.47-6.51,0-8.57,1.62-3.22,2.46-1.34,6.16.42,9,3.12,5.07,7.42,9,13.31,10.41,2.06.48,5.23-.11,6.58-1.49,1.14-1.17,1-4.41.35-6.34C540.31,249.23,535.81,245.6,530.22,241.78Zm-118.5,76.91c-7.88-2.17-14.43-2-20.35,1.84-1.69,1.1-3.64,3.73-3.41,5.37.27,1.93,2.46,4.41,4.39,5.14a20.89,20.89,0,0,0,19.11-1.81c1.79-1.13,3.66-3.8,3.61-5.72S412.59,319.83,411.72,318.69Zm-55.24-100.3c8,2.1,14.46,1.86,20.21-1.93,1.74-1.14,3.44-3.94,3.32-5.85-.11-1.65-2.58-3.83-4.48-4.55a20.93,20.93,0,0,0-18.4,1.48c-1.95,1.13-4.05,3.88-4.06,5.9S355.67,217.31,356.48,218.39Zm80.38-8.71c-6.21-2.47-13.8-2.36-18.28.06-4.76,2.58-5.12,6.86-.63,9.81,5.44,3.56,11.48,3.73,17.59,2.31,3.16-.73,6.44-2,6.75-5.83S439.35,210.75,436.86,209.68Zm30.78,7.19c4,.29,7.42,1,10.74.66,4.23-.49,5.6-4,3.62-7.74-3-5.78-13.63-11-20-9.78-4.59.86-6.56,4.61-3.69,8.26C460.92,211.56,464.52,214.06,467.64,216.87ZM464.5,283c-3.61-1.39-7-3-9.68.21s-.88,6.42,1,9.26c3.28,5,7.53,8.93,13.56,10.06,1.89.36,4.89,0,5.83-1.25,1.13-1.48,1.32-4.47.67-6.38C473.89,289.09,469.47,285.36,464.5,283Zm-36.06-32.78c-7.87-2.33-14.31-2-20.1,1.71-1.75,1.13-3.64,4-3.37,5.76s2.79,4.12,4.8,4.82a20.84,20.84,0,0,0,18-1.72c1.93-1.16,3.9-3.89,4-6C431.88,253,429.23,251.18,428.44,250.18Zm59.15,12.34c3.53-.6,6.82-.25,8.75-1.71,2.82-2.13,2-6-.07-8.25A75.18,75.18,0,0,0,484.56,242c-2.41-1.74-6-2.26-8.41.44s-1.61,6.06.33,8.44C479.78,255,483.7,258.51,487.59,262.52Z"/><path class="cls-3" d="M182.81,416.24c4.73,1.92,9.5,3.77,14.16,5.85.71.32,1.17,1.64,1.35,2.58,5.09,25.58,25.94,38,51.82,37.42,10.28-.24,17.78,2.87,23.07,12.13,5.39,9.44,22.06,15.83,34.62,11.84,10.52-3.34,17.43.67,24.22,6.93,5.95,5.51,11.53,11.43,17.14,17.3,2,2.06,3.66,2.5,6.45,1.41,8.18-3.22,13.63-1.36,18.83,5.9,4.49,6.26,10.09,10.91,18.06,11.58a9.33,9.33,0,0,0,6-1.48c8.74-6.73,18.29-6.33,28.2-3.86,10.86,2.72,20.3,8.39,29.65,14.26,1.58,1,3.24,2.21,5,2.48s4,0,5.25-1c4.46-3.76,8.95-4.77,14.45-2.32,7.28,3.25,14.72,6.17,22.16,9,3.19,1.23,4,3,2.36,6-3.19,5.75-6.82,10.67-14.4,10.86-6.16.14-12.31.93-18.26,1.42,1.1-6.16,2.08-11.71,3.26-18.32-2.1,5.16-3.55,9.16-5.34,13-1.71,3.68-4.35,5.77-8.92,5.21-15.49-1.87-31-3.47-46.52-5.23a12.23,12.23,0,0,1-2.66-1.05l9.58-16-.9-.73c-3.6,3.92-7.49,7.61-10.69,11.83-2.59,3.4-5.24,4.22-9.23,3.05-7.48-2.19-15.06-4-22.82-6.05.52-4.07,1-7.73,1.45-11.38l-.88-.37c-1.45,2.47-3,4.87-4.32,7.43-1.06,2.13-2.28,2.46-4.52,1.74A597.72,597.72,0,0,1,274.93,508c-17.58-9.19-34.74-19.19-52.06-28.88-1.88-1.05-3.46-2.63-5.34-3.7-6.4-3.65-8.69-9-7.28-16.48-.7,1.07-1.48,2.09-2.07,3.21s-1,2.33-1.61,3.9c-13.82-13.63-23.28-29-24.77-48.42Z"/><path class="cls-3" d="M297.15,457.14c-13.87-21.77-11.16-56.34-2.3-70.67A536.7,536.7,0,0,0,400.79,431,235.46,235.46,0,0,0,297.15,457.14ZM296.89,446c1.64-16.58,2.13-33.35,11.4-48.16-6.93-1.33-9.89.31-11.42,6.44C293.4,418.18,295.23,432.09,296.89,446Z"/><path class="cls-3" d="M479.71,447.05c10.39.83,20.27,2.07,30.18,2.32,18.34.46,36.69.4,55,.37,2.8,0,4.49.63,5.93,3.14,8.51,14.95,7.06,29.67-.79,44.27-1.21,2.26-2.71,4.36-4.25,6.8C542.2,477.06,511.51,461.67,479.71,447.05Zm86.62,47c6.86-9.14,7.71-26.77-3.35-31.57C567.51,472.81,568,483.28,566.33,494Z"/><path class="cls-3" d="M241.77,446.51c3.09-3.39,5.5-6.42,8.36-9a5.31,5.31,0,0,1,4.62-.69q13,5.43,25.79,11.47c1.36.64,2.16,2.54,3.13,3.92,3.21,4.58,6.25,9.31,9.63,13.76,2,2.57,4,2.74,6.68,0,7.09-7.13,8.14-7,17-3.08q18.07,8,36.3,15.69c9.94,4.19,10,4.09,3.93,13-.88,1.3-1.69,2.64-2.95,4.6-3.86-3.26-8-6.31-11.61-9.92-6.37-6.4-12.7-12.91-21.69-15.32-3.45-.92-7.73-1.25-10.92,0a20.35,20.35,0,0,1-13.91.6c-7.25-2.14-13.81-4.72-18.68-11.44-7.25-10-18.4-12.9-30.23-13.53C245.66,446.56,244.12,446.57,241.77,446.51Z"/><path class="cls-3" d="M210.7,418.68l36.2,14.73c-4.29,4.53-8,8.41-11.61,12.32,0,0,.44.54,1.21,1.48C223.55,441,215.69,431.24,210.7,418.68Z"/><path class="cls-3" d="M393.32,513.56c-3.81-3.24-7.66-6-10.84-9.35a25.54,25.54,0,0,0-15.64-8.33c-1.4-.19-2.78-.41-4.06-.59-.1-.42-.19-.57-.16-.69,2.33-9.7,2.9-10,12-6.29,5.9,2.4,11.72,5,17.72,7.12,3.61,1.29,4.66,3.2,3.58,6.82C394.94,505.52,394.36,508.92,393.32,513.56Z"/><path class="cls-3" d="M298.87,383.5,409,428.33A483.79,483.79,0,0,1,298.87,383.5Z"/><path class="cls-3" d="M569.69,392.09c-3.08-3.24-6.27-6.14-8.85-9.51-1-1.31-.62-3.67-.86-5.55,1.93.09,4.34-.52,5.7.41a49.36,49.36,0,0,1,9.31,8.18c1.19,1.35,1,3.93,1.38,5.95Z"/><path class="cls-3" d="M398.42,511.27c.61-3.62,1.3-7.65,2.1-12.41l16.29,7.8Z"/><path class="cls-3" d="M507,556.8c1.1-2.29,1.82-5,3.52-6.65.62-.62,3.57,1.11,5.46,1.77l0,1.34-8,4.35Z"/><path d="M241.69,249.1c-.65-.83-3.19-2.65-3.22-4.52,0-2.09,1.72-5,3.56-6.2,6-4,12.87-4.17,19.52-1.92,1.92.65,4.19,3.24,4.4,5.14s-1.63,4.5-3.33,5.83C258.06,251,248.49,251.8,241.69,249.1Zm2.65-2.45c4.62,1.94,13.28.9,17.12-2,2.42-1.82,2.32-3.44-.18-5-4.13-2.61-14.66-1.49-18.15,1.93C240.83,243.83,241.19,245.33,244.34,246.65Z"/><path d="M292,277.45c1.41,1.85,3.83,3.64,3.93,5.56s-1.64,4.67-3.39,5.83c-6,4-12.83,4.35-19.51,2.11-1.95-.65-4.29-3.18-4.52-5.07s1.62-4.53,3.32-5.87C276.44,276.36,285.67,275.66,292,277.45Zm-2.67,2.95a19.72,19.72,0,0,0-15.88,2.15c-2.93,1.8-2.86,4.36.24,5.41,6,2,12,1.79,17.38-1.78C294,284.2,293.54,282.13,289.29,280.4Z"/><path d="M319,236.94c-.56-.73-2.95-2.46-3-4.21a8.21,8.21,0,0,1,3.33-5.89c6-4,12.84-4.26,19.52-2,1.85.62,4.18,3,4.28,4.74.12,1.92-1.6,4.53-3.29,5.88C335.25,239.1,326,239.79,319,236.94Zm2.18-2.11c6.29,1.62,11.82,1.43,17-1.62,1.08-.64,2.42-2.26,2.26-3.2s-1.76-2.36-3-2.71a20.37,20.37,0,0,0-16,1.64c-1.12.63-2.49,2.07-2.48,3.13S320.53,234.14,321.13,234.83Z"/><path d="M279.33,214.24c-.84-1.23-3.17-3.13-3.17-5s1.8-4.69,3.6-5.79a21.1,21.1,0,0,1,20-1.52c5.16,2.19,5.77,6.88,1.16,10.06C294.65,216.28,287.69,216.53,279.33,214.24Zm2-2.54c6.14,1.5,11.7,1.41,16.87-1.58,1.09-.63,2.32-2.27,2.22-3.34s-1.72-2.27-2.92-2.64a19.85,19.85,0,0,0-16,1.68,5,5,0,0,0-2.27,3.32C279.15,210,280.69,211,281.3,211.7Z"/><path d="M577.69,300.66c6.27,2.88,10.47,6.66,12.56,12.14.77,2,.84,5.51-.38,6.74-1.45,1.46-4.83,2.07-7,1.54-5.71-1.37-9.89-5.28-13-10.18-1.9-3-3.66-6.37-.84-9.58S575.38,299.89,577.69,300.66Zm0,2.2-6.55.52c.34,1.89,0,4.35,1.13,5.57a56.29,56.29,0,0,0,9.58,8.53c1.34.94,3.76.34,5.69.44-.32-2,0-4.5-1.09-5.92C584,308.73,580.77,306,577.69,302.86Z"/><path d="M541.8,308.49c5.48,3.6,9.94,7.26,12.11,12.88.77,2,.86,5.32-.31,6.76s-4.53,2.16-6.53,1.64A20.76,20.76,0,0,1,532,315.69c-.58-1.75.2-5.37,1.43-6C535.8,308.49,539,308.81,541.8,308.49Zm0,3c-3,.15-4.95,0-6.75.51-.36.1-.55,2.73,0,3.83a19.72,19.72,0,0,0,12.51,11.06,4.76,4.76,0,0,0,3.89-.76c.57-.51.44-2.73-.2-3.55C548.21,318.76,544.9,315.12,541.81,311.53Z"/><path d="M322.12,273.77c-.91-1.17-3.29-2.89-3.32-4.66a8.08,8.08,0,0,1,3.24-6,20.92,20.92,0,0,1,20.29-1.64c4.94,2.13,5.49,6.56,1.12,9.73C337.26,275.74,330.29,275.76,322.12,273.77ZM341,263.82c-6.33-1.87-12-1.42-17.24,1.62-1,.56-2.08,2-2,3a4,4,0,0,0,2.42,2.6,19.62,19.62,0,0,0,17.07-1.77,4,4,0,0,0,1.85-3C343,265.25,341.6,264.41,341,263.82Z"/><path d="M328.28,312.39c-.73-1.05-3-2.87-3.12-4.86-.14-1.78,1.56-4.42,3.21-5.5a21.08,21.08,0,0,1,20-1.84c1.83.72,4,3.1,4.14,4.86s-1.6,4.43-3.29,5.56C343.14,314.64,336.42,314.78,328.28,312.39Zm1.9-2.48c6.48,1.78,12.13,1.45,17.39-1.71,1-.58,2.05-2.06,1.95-3a4.07,4.07,0,0,0-2.52-2.56,20,20,0,0,0-16.74,1.65c-1,.59-2.35,2-2.23,2.83C328.2,308.28,329.62,309.25,330.18,309.91Z"/><path d="M491.69,345.78c-5.95-3.68-10.65-7.58-12.85-13.85-1.78-5.07,1.08-8.64,6.31-7.5a20.78,20.78,0,0,1,15.81,14c.63,1.75,0,5.37-1.28,6.09C497.5,345.75,494.4,345.43,491.69,345.78Zm1.69-3.3a21.68,21.68,0,0,0,4.4-.09c.37-.06.74-2.05.54-3-1-4.77-8.34-11.47-13.15-12.17-3.67-.54-4.91,1-3.4,4.47C483.87,336.54,487.62,339.83,493.38,342.48Z"/><path d="M481.53,381.85c-4.95-2.36-9.23-5.89-11.36-11.09-.94-2.29-.93-6.12.43-7.85,1.11-1.4,5-1.42,7.42-.82,5.37,1.38,9.2,5.22,12.19,9.78,2,3,3.37,6.47.7,9.6S484.85,383.06,481.53,381.85Zm.45-1.93,6.8-.5c-.37-2-.07-4.68-1.26-5.92A71.39,71.39,0,0,0,477,364.82c-1-.71-3-.06-4.48,0,.09,1.63-.43,3.72.38,4.8C475.64,373.19,478.86,376.44,482,379.92Z"/><path d="M530.22,241.78c5.59,3.82,10.09,7.45,12.09,13.22.68,1.93.79,5.17-.35,6.34-1.35,1.38-4.52,2-6.58,1.49-5.89-1.38-10.19-5.34-13.31-10.41-1.76-2.86-3.64-6.56-.42-9C523.71,241.82,527.31,242.25,530.22,241.78ZM528.41,245a21.71,21.71,0,0,0-4.53,0c-.41.06-.88,2-.71,3,.83,4.82,8.57,11.81,13.49,12.4,3.3.39,4.46-.86,3.29-4C538,251.26,534.13,247.88,528.41,245Z"/><path d="M411.72,318.69c.87,1.14,3.31,2.95,3.35,4.82s-1.82,4.59-3.61,5.72A20.89,20.89,0,0,1,392.35,331c-1.93-.73-4.12-3.21-4.39-5.14-.23-1.64,1.72-4.27,3.41-5.37C397.29,316.67,403.84,316.52,411.72,318.69ZM393,328.59c6.26,1.4,12,1.43,17.21-1.86,1-.61,2.16-2,2.1-2.93s-1.46-2.13-2.53-2.53A19.33,19.33,0,0,0,392.66,323a4,4,0,0,0-1.85,3C390.92,327,392.33,327.88,393,328.59Z"/><path d="M356.48,218.39c-.81-1.08-3.43-3-3.41-4.95s2.11-4.77,4.06-5.9a20.93,20.93,0,0,1,18.4-1.48c1.9.72,4.37,2.9,4.48,4.55.12,1.91-1.58,4.71-3.32,5.85C370.94,220.25,364.5,220.49,356.48,218.39Zm1.63-2.46c6.17,1.64,11.58,1.39,16.63-1.42a5.35,5.35,0,0,0,2.55-3.52c.07-.79-1.82-2.2-3.06-2.57a20.2,20.2,0,0,0-16,1.65c-1.11.61-2.42,2.12-2.39,3.18S357.52,215.28,358.11,215.93Z"/><path d="M436.86,209.68c2.49,1.07,5.75,2.43,5.43,6.35s-3.59,5.1-6.75,5.83c-6.11,1.42-12.15,1.25-17.59-2.31-4.49-3-4.13-7.23.63-9.81C423.06,207.32,430.65,207.21,436.86,209.68Zm-1.44,1.16c-4.7.22-9.39.22-14,.81-1.35.18-2.49,2-3.72,3.12,1.14,1.2,2.16,3.26,3.45,3.44a80.48,80.48,0,0,0,14.05.74c1.49-.06,2.91-2,4.36-3Z"/><path d="M467.64,216.87c-3.12-2.81-6.72-5.31-9.32-8.6-2.87-3.65-.9-7.4,3.69-8.26,6.36-1.19,17,4,20,9.78,2,3.78.61,7.25-3.62,7.74C475.06,217.91,471.6,217.16,467.64,216.87Zm3.65-13.2c-3.35-.37-6-1-8.7-.87s-3.31,1.87-2,4.24c2.49,4.57,11.82,9,16.8,8,2.67-.54,3.72-2.15,1.89-4.19A92.34,92.34,0,0,0,471.29,203.67Z"/><path d="M464.5,283c5,2.4,9.39,6.13,11.37,11.9.65,1.91.46,4.9-.67,6.38-.94,1.23-3.94,1.61-5.83,1.25-6-1.13-10.28-5.09-13.56-10.06-1.87-2.84-3.53-6.16-1-9.26S460.89,281.57,464.5,283Zm2.22,17.09,6.7-.73c-.34-1.89,0-4.43-1.16-5.57a81.39,81.39,0,0,0-10.8-8.94c-1-.69-2.92,0-4.42,0,.06,1.51-.45,3.46.3,4.43C460.2,293,463.46,296.38,466.72,300.05Z"/><path d="M428.44,250.18c.79,1,3.44,2.86,3.36,4.59-.09,2.09-2.06,4.82-4,6a20.84,20.84,0,0,1-18,1.72c-2-.7-4.52-3-4.8-4.82s1.62-4.63,3.37-5.76C414.13,248.14,420.57,247.85,428.44,250.18Zm-18.7,9.67c6.46,1.63,12.29,1.44,17.61-2,2.77-1.77,2.6-3.85-.41-5.09-6-2.48-11.92-1.72-17.46,1.52a3.91,3.91,0,0,0-1.84,3C407.77,258.34,409.16,259.21,409.74,259.85Z"/><path d="M487.59,262.52c-3.89-4-7.81-7.57-11.11-11.63-1.94-2.38-2.76-5.76-.33-8.44s6-2.18,8.41-.44a75.18,75.18,0,0,1,11.71,10.55c2,2.27,2.89,6.12.07,8.25C494.41,262.27,491.12,261.92,487.59,262.52Zm2.48-3.24a12.86,12.86,0,0,0,4.15-.28c.51-.17.86-2.47.46-3.45a19.23,19.23,0,0,0-13.08-11.72c-3.35-.91-4.79.84-3.53,4.08C480.14,253.17,484.21,256.55,490.07,259.28Z"/><path d="M296.89,446c-1.66-13.94-3.49-27.85,0-41.72,1.53-6.13,4.49-7.77,11.42-6.44C299,412.68,298.53,429.45,296.89,446Z"/><path d="M566.33,494c1.68-10.76,1.18-21.23-3.35-31.57C574,467.27,573.19,484.9,566.33,494Z"/><path class="cls-3" d="M244.34,246.65c-3.15-1.32-3.51-2.82-1.21-5.07,3.49-3.42,14-4.54,18.15-1.93,2.5,1.58,2.6,3.2.18,5C257.62,247.55,249,248.59,244.34,246.65Z"/><path class="cls-3" d="M289.29,280.4c4.25,1.73,4.75,3.8,1.74,5.78-5.41,3.57-11.42,3.8-17.38,1.78-3.1-1-3.17-3.61-.24-5.41A19.72,19.72,0,0,1,289.29,280.4Z"/><path class="cls-3" d="M321.13,234.83c-.6-.69-2.22-1.72-2.22-2.76s1.36-2.5,2.48-3.13a20.37,20.37,0,0,1,16-1.64c1.22.35,2.81,1.65,3,2.71s-1.18,2.56-2.26,3.2C333,236.26,327.42,236.45,321.13,234.83Z"/><path class="cls-3" d="M281.3,211.7c-.61-.7-2.15-1.71-2.07-2.56a5,5,0,0,1,2.27-3.32,19.85,19.85,0,0,1,16-1.68c1.2.37,2.83,1.65,2.92,2.64s-1.13,2.71-2.22,3.34C293,213.11,287.44,213.2,281.3,211.7Z"/><path class="cls-3" d="M577.69,302.86c3.08,3.14,6.26,5.87,8.76,9.14,1.08,1.42.77,3.91,1.09,5.92-1.93-.1-4.35.5-5.69-.44a56.29,56.29,0,0,1-9.58-8.53c-1.09-1.22-.79-3.68-1.13-5.57Z"/><path class="cls-3" d="M541.81,311.53c3.09,3.59,6.4,7.23,9.42,11.09.64.82.77,3,.2,3.55a4.76,4.76,0,0,1-3.89.76A19.72,19.72,0,0,1,535,315.87c-.52-1.1-.33-3.73,0-3.83C536.86,311.56,538.82,311.68,541.81,311.53Z"/><path class="cls-3" d="M341,263.82c.56.59,2,1.43,2.09,2.41a4,4,0,0,1-1.85,3A19.62,19.62,0,0,1,324.21,271a4,4,0,0,1-2.42-2.6c-.07-1,1-2.4,2-3C329.08,262.4,334.71,262,341,263.82Z"/><path class="cls-3" d="M330.18,309.91c-.56-.66-2-1.63-2.15-2.78-.12-.83,1.21-2.24,2.23-2.83A20,20,0,0,1,347,302.65a4.07,4.07,0,0,1,2.52,2.56c.1.93-1,2.41-1.95,3C342.31,311.36,336.66,311.69,330.18,309.91Z"/><path class="cls-3" d="M493.38,342.48c-5.76-2.65-9.51-5.94-11.61-10.82-1.51-3.5-.27-5,3.4-4.47,4.81.7,12.18,7.4,13.15,12.17.2,1-.17,3-.54,3A21.68,21.68,0,0,1,493.38,342.48Z"/><path class="cls-3" d="M482,379.92c-3.12-3.48-6.34-6.73-9.08-10.33-.81-1.08-.29-3.17-.38-4.8,1.52,0,3.48-.68,4.48,0a71.39,71.39,0,0,1,10.52,8.68c1.19,1.24.89,3.9,1.26,5.92Z"/><path class="cls-3" d="M528.41,245c5.72,2.85,9.61,6.23,11.54,11.39,1.17,3.11,0,4.36-3.29,4-4.92-.59-12.66-7.58-13.49-12.4-.17-1,.3-2.9.71-3A21.71,21.71,0,0,1,528.41,245Z"/><path class="cls-3" d="M393,328.59c-.64-.71-2.05-1.58-2.16-2.59a4,4,0,0,1,1.85-3,19.33,19.33,0,0,1,17.09-1.71c1.07.4,2.47,1.61,2.53,2.53s-1.12,2.32-2.1,2.93C404.93,330,399.23,330,393,328.59Z"/><path class="cls-3" d="M358.11,215.93c-.59-.65-2.21-1.64-2.25-2.68s1.28-2.57,2.39-3.18a20.2,20.2,0,0,1,16-1.65c1.24.37,3.13,1.78,3.06,2.57a5.35,5.35,0,0,1-2.55,3.52C369.69,217.32,364.28,217.57,358.11,215.93Z"/><path class="cls-3" d="M435.42,210.84l4.12,5.09c-1.45,1.06-2.87,3-4.36,3a80.48,80.48,0,0,1-14.05-.74c-1.29-.18-2.31-2.24-3.45-3.44,1.23-1.08,2.37-2.94,3.72-3.12C426,211.06,430.72,211.06,435.42,210.84Z"/><path class="cls-3" d="M471.29,203.67a92.34,92.34,0,0,1,8,7.17c1.83,2,.78,3.65-1.89,4.19-5,1-14.31-3.42-16.8-8-1.3-2.37-.69-4.13,2-4.24S467.94,203.3,471.29,203.67Z"/><path class="cls-3" d="M466.72,300.05c-3.26-3.67-6.52-7.06-9.38-10.77-.75-1-.24-2.92-.3-4.43,1.5-.05,3.45-.73,4.42,0a81.39,81.39,0,0,1,10.8,8.94c1.12,1.14.82,3.68,1.16,5.57Z"/><path class="cls-3" d="M409.74,259.85c-.58-.64-2-1.51-2.1-2.53a3.91,3.91,0,0,1,1.84-3c5.54-3.24,11.44-4,17.46-1.52,3,1.24,3.18,3.32.41,5.09C422,261.29,416.2,261.48,409.74,259.85Z"/><path class="cls-3" d="M490.07,259.28c-5.86-2.73-9.93-6.11-12-11.37-1.26-3.24.18-5,3.53-4.08a19.23,19.23,0,0,1,13.08,11.72c.4,1,.05,3.28-.46,3.45A12.86,12.86,0,0,1,490.07,259.28Z"/><text class="cls-4" transform="translate(91.85 417.15) rotate(-85.11)">F</text><text class="cls-4" transform="matrix(0.17, -0.99, 0.99, 0.17, 96.62, 366.79)">I</text><text class="cls-4" transform="translate(99.11 343.3) rotate(-73.43)">N</text><text class="cls-4" transform="translate(117.81 278.9) rotate(-61.9)">G</text><text class="cls-4" transform="matrix(0.63, -0.77, 0.77, 0.63, 149.13, 221.1)">E</text><text class="cls-4" transform="translate(180.12 182.47) rotate(-40.09)">R</text><text class="cls-4" transform="matrix(0.84, -0.54, 0.54, 0.84, 222.95, 147.73)"> </text><text class="cls-4" transform="translate(239.9 135.85) rotate(-25.69)">L</text><text class="cls-4" transform="translate(283.75 115.44) rotate(-18.88)">I</text><text class="cls-4" transform="translate(305.39 106.62) rotate(-11.29)">C</text><text class="cls-4" transform="matrix(1, -0.02, 0.02, 1, 363.24, 94.97)">K</text><text class="cls-4" transform="translate(418.86 94.83) rotate(6.54)">I</text><text class="cls-4" transform="translate(441.92 95.51) rotate(15.44)">N</text><text class="cls-4" transform="translate(506.23 114.9) rotate(24.05)">’</text><text class="cls-4" transform="translate(524.95 121.76) rotate(31.72)">B</text><text class="cls-4" transform="translate(571.78 149.54) rotate(44.07)">U</text><text class="cls-4" transform="matrix(0.56, 0.83, -0.83, 0.56, 618.72, 195.36)">R</text><text class="cls-4" transform="translate(649.73 240.29) rotate(67.64)">G</text><text class="cls-4" transform="translate(674.38 301.7) rotate(77.38)">E</text><text class="cls-4" transform="matrix(0.09, 1, -1, 0.09, 685.59, 350.74)">R</text><text class="cls-4" transform="translate(689.73 406.63) rotate(89.92)"> </text><path class="cls-2" d="M634.79,702.78c-2.51-14.32-7.23-27.3-12.91-37.23-1.14,16.17-6.29,30.34-13.92,43.46A57.6,57.6,0,0,1,634.79,702.78Z"/><path class="cls-2" d="M373.52,777.11a58.41,58.41,0,0,1,19.48-3.5q18.62,0,37.17-1.26A81.5,81.5,0,0,1,431.51,758c4.2-22.77,17.41-39.31,35.39-52.79-4.66,17.34-1.82,33.91,4.4,49.95,1.37,3.54,2.78,7.05,4.29,10.51A393,393,0,0,0,525.22,751c.38-2.08.74-4.18,1.13-6.29,1.72,1.31,3.37,2.63,4.93,4l3.68-1.44c18.26-8.09,36-17.27,53.43-27,1.85-7.71,3.69-15.41,5.47-23.13,4.15-17.89,7.56-35.79,5.47-54.42a221.39,221.39,0,0,0-7.6-38.74c-4.67-15.68-11.79-30.24-19.77-44.44a242.44,242.44,0,0,0-33.57-46.06,157.73,157.73,0,0,0-40.32-31.65c-4.8-2.62-10.08-4.34-15.51-6.63a27.39,27.39,0,0,0,0,4.77c3.52,15.95,2.48,31.58-2.38,47.17-6.33,20.31-18.85,36.66-33,51.87-15.33,16.55-31.33,32.47-46.91,48.78a145.07,145.07,0,0,0-25,35.4c-6.23,12.44-10.62,25.55-12.05,39.62a153.52,153.52,0,0,0,10.19,74.4Z"/><path class="cls-1" d="M429.91,759.35c29.41-17.21,61-30,93.07-41.77a236.89,236.89,0,0,0-6.93-31.13c-5.35-18-13.51-34.65-22.65-50.92a278.3,278.3,0,0,0-38.46-52.78,180.76,180.76,0,0,0-46.2-36.25c-5.49-3-11.55-5-17.77-7.61,0,2.63-.26,4.11,0,5.47,4,18.27,2.85,36.19-2.72,54-7.25,23.27-21.6,42-37.76,59.43-17.56,19-35.89,37.2-53.75,55.89A170.92,170.92,0,0,0,285.36,727q10,3,20.08,6c15,4.56,26.57,13.87,35,26.88a46.3,46.3,0,0,1,4.16,8.18c4-.21,8.05-.63,12.06-1.12,19.1-2.67,38.17-5.76,57.39-7.3A140.41,140.41,0,0,1,429.91,759.35Z"/><path class="cls-1" d="M123.69,646.93l-9.15-11.84a217.65,217.65,0,0,0,16,18.28,250.21,250.21,0,0,1,23.34,20.11,307.25,307.25,0,0,0,46.58,25.45c34.19,13.68,69.8,23.41,105,34.11A61.25,61.25,0,0,1,336,753.86c17.45-40.85,8.2-89-7.6-116.54-2.38,34-20.24,60.3-42.76,85.46-.3-1.73-.54-2.22-.44-2.64,3.69-15.59,7.49-31.14,11.1-46.74,4.75-20.51,8.67-41,6.27-62.36a254.21,254.21,0,0,0-8.71-44.39c-5.35-18-13.51-34.64-22.65-50.91A278.74,278.74,0,0,0,232.78,463a181,181,0,0,0-46.2-36.26c-5.5-3-11.55-5-17.77-7.6,0,2.62-.26,4.11,0,5.47,4,18.27,2.85,36.18-2.72,54.05-7.25,23.27-21.6,42-37.76,59.43C111.89,555.83,94.75,573,78,590.47,93.3,609.2,108.93,627.7,123.69,646.93Z"/><path class="cls-2" d="M305.44,733c15,4.56,26.57,13.87,35,26.88a46.3,46.3,0,0,1,4.16,8.18c4-.21,8.05-.63,12.06-1.12,11.17-1.56,22.33-3.26,33.52-4.72q2.89-12.07,5.71-24.16c4.75-20.51,8.67-41,6.27-62.36a254.21,254.21,0,0,0-8.71-44.39c-5.35-18-13.51-34.65-22.65-50.92a278.6,278.6,0,0,0-38.47-52.77A180.58,180.58,0,0,0,286.1,491.4c-5.5-3-11.55-5-17.77-7.6,0,2.62-.26,4.1,0,5.46,4,18.28,2.85,36.19-2.72,54.06-7.25,23.27-21.6,42-37.76,59.43-17.57,19-35.89,37.2-53.75,55.88A169.89,169.89,0,0,0,159,676.85a315.27,315.27,0,0,0,41.41,22.08C234.64,712.61,270.25,722.34,305.44,733Z"/><path class="cls-2" d="M429.91,759.35q6.87-4,13.88-7.72C441.35,732.48,435.37,715,428,702c-1.55,22.08-9.64,40.92-21.29,58.32,2.45-.24,4.9-.47,7.35-.66A140.41,140.41,0,0,1,429.91,759.35Z"/><path class="cls-3" d="M392,0C175.51,0,0,175.51,0,392S175.51,784,392,784,784,608.5,784,392,608.5,0,392,0Zm0,679.22c-158.62,0-287.22-128.59-287.22-287.22S233.38,104.78,392,104.78,679.22,233.38,679.22,392,550.63,679.22,392,679.22Z"/><path class="cls-5" d="M392,95.84C228.44,95.84,95.84,228.44,95.84,392S228.44,688.17,392,688.17,688.17,555.57,688.17,392,555.57,95.84,392,95.84Zm0,585.22c-159.64,0-289-129.42-289-289.06S232.36,103,392,103,681.06,232.36,681.06,392,551.64,681.06,392,681.06Z"/><text class="cls-6" transform="translate(91.78 417.15) rotate(-85.11)">F</text><text class="cls-6" transform="matrix(0.17, -0.99, 0.99, 0.17, 96.55, 366.79)">I</text><text class="cls-6" transform="translate(99.04 343.3) rotate(-73.43)">N</text><text class="cls-6" transform="translate(117.74 278.9) rotate(-61.9)">G</text><text class="cls-6" transform="matrix(0.63, -0.77, 0.77, 0.63, 149.06, 221.1)">E</text><text class="cls-6" transform="translate(180.05 182.47) rotate(-40.09)">R</text><text class="cls-6" transform="matrix(0.84, -0.54, 0.54, 0.84, 222.88, 147.73)"> </text><text class="cls-6" transform="translate(239.83 135.85) rotate(-25.69)">L</text><text class="cls-6" transform="translate(283.68 115.44) rotate(-18.88)">I</text><text class="cls-6" transform="translate(305.32 106.62) rotate(-11.29)">C</text><text class="cls-6" transform="matrix(1, -0.02, 0.02, 1, 363.17, 94.97)">K</text><text class="cls-6" transform="translate(418.78 94.83) rotate(6.54)">I</text><text class="cls-6" transform="translate(441.85 95.51) rotate(15.44)">N</text><text class="cls-6" transform="translate(506.16 114.9) rotate(24.05)">’</text><text class="cls-6" transform="translate(524.88 121.76) rotate(31.72)">B</text><text class="cls-6" transform="translate(571.71 149.54) rotate(44.07)">U</text><text class="cls-6" transform="matrix(0.56, 0.83, -0.83, 0.56, 618.65, 195.36)">R</text><text class="cls-6" transform="translate(649.65 240.29) rotate(67.64)">G</text><text class="cls-6" transform="translate(674.3 301.7) rotate(77.38)">E</text><text class="cls-6" transform="matrix(0.09, 1, -1, 0.09, 685.52, 350.74)">R</text><text class="cls-6" transform="translate(689.66 406.63) rotate(89.92)"> </text></g></g></svg>